<svg width="372" height="99" viewBox="0 0 372 99" fill="none" xmlns="http://www.w3.org/2000/svg">
<g clip-path="url(#clip0_581_170)">
<path d="M161.1 63.0001C158.92 62.8401 159.46 58.9101 159.63 57.8001C161.94 41.6201 164.02 23.8001 164.57 19.3301C165.36 12.4301 165.04 9.80008 164.26 7.33008C162.96 3.73008 158.68 0.850082 152.63 0.330082C137.25 -0.809918 129 3.17008 123.72 12.9401C120.72 18.1601 119.12 25.1001 117.6 34.2601C116 45.7001 115 54.7501 118 61.6801C121.06 67.5801 126.41 70.0701 133.52 69.5901C139.29 69.2001 145.92 64.8401 149.28 59.8701C148.92 66.0601 151.71 68.8101 155.8 68.4701C159.33 68.1901 163.54 65.5801 165.22 63.8101L164.32 61.6601C163.436 62.4684 162.297 62.9423 161.1 63.0001ZM150.1 51.1301C148.56 60.2901 140.77 64.8601 135.29 65.0401C129.81 65.2201 126.53 63.1001 125.84 58.6601C124.84 54.0601 126.31 42.5301 127.46 34.7401C128.76 25.7401 130.78 16.7401 133.38 11.5301C134.305 9.38923 135.781 7.53149 137.657 6.14567C139.533 4.75986 141.742 3.89537 144.06 3.64008C148.49 3.01008 155.47 4.04008 154.86 12.8101C154.29 20.9401 151.83 40.9001 150.12 51.0801L150.1 51.1301Z" fill="#040000"/>
<path d="M45 63.0001C42.81 62.8401 43.35 58.9101 43.53 57.8001C45.85 41.6201 47.89 23.8001 48.43 19.3301C49.26 12.4301 48.93 9.80008 48.17 7.33008C46.85 3.73008 42.58 0.850082 36.52 0.330082C21.17 -0.809918 12.94 3.17008 7.64005 12.9401C4.70005 18.1601 3.00005 25.1001 1.52005 34.2601C4.72069e-05 45.7001 -1.08995 54.7501 1.93005 61.6801C5.00005 67.5801 10.34 70.0701 17.46 69.5901C23.23 69.2001 29.85 64.8401 33.24 59.8701C32.87 66.0601 35.64 68.8101 39.72 68.4701C43.28 68.1901 47.49 65.5801 49.15 63.8101L48.22 61.6601C47.3453 62.4834 46.2006 62.9598 45 63.0001ZM34 51.0801C32.53 60.2401 24.73 64.8101 19.23 65.0001C13.73 65.1901 10.47 63.0601 9.78005 58.6201C8.83005 54.0201 10.25 42.4901 11.38 34.7001C12.68 25.7001 14.73 16.7001 17.33 11.4901C18.2522 9.34812 19.7253 7.48869 21.5996 6.10102C23.4738 4.71336 25.6822 3.84699 28 3.59008C32.44 3.00008 39.4 4.00008 38.8 12.7601C38.24 20.9401 35.76 40.9001 34 51.0801Z" fill="#040000"/>
<path d="M370.7 61.6599C369.818 62.4718 368.678 62.9464 367.48 62.9999C365.3 62.8399 365.84 58.9099 365.99 57.7999C368.33 41.6199 370.37 23.7999 370.91 19.3299C371.75 12.4299 371.41 9.79988 370.63 7.32988C369.36 3.72988 365.06 0.759883 358.99 0.329883C343.69 -0.820117 335.36 3.20988 330.09 12.9799C327.09 18.1999 325.49 25.1399 323.97 34.2999C322.42 45.7399 321.36 54.7899 324.38 61.7199C327.45 67.6199 332.8 70.1099 339.91 69.6299C345.7 69.2399 352.3 64.8799 355.7 59.9099C355.3 66.0999 358.09 68.8499 362.18 68.5099C365.73 68.2299 369.94 65.6199 371.63 63.8499L370.7 61.6599ZM356.49 51.0799C355 60.2399 347.18 64.8099 341.69 64.9999C336.2 65.1899 332.93 63.0599 332.24 58.6199C331.24 54.0199 332.71 42.4899 333.83 34.6999C335.15 25.6999 337.21 16.6999 339.78 11.4899C340.704 9.35039 342.178 7.49355 344.052 6.10783C345.926 4.72211 348.133 3.85686 350.45 3.59988C354.89 2.96988 361.86 3.99988 361.25 12.7699C360.66 20.9399 358.2 40.8999 356.49 51.0799Z" fill="#040000"/>
<path d="M86.8701 12.11C85.4387 14.2136 84.1459 16.4082 83.0001 18.68L85.0001 1.33H74.7101L67.1001 68.4H77.3601L81.7501 29.75C82.7313 26.0627 84.3526 22.5764 86.5401 19.45C93.8901 9.56 105.2 9.64 108.54 9.64L108.23 0C104.66 0 94.3001 2.27 86.8701 12.11Z" fill="#040000"/>
<path d="M214.64 0.80994C210.19 1.35994 204.45 2.80994 200.27 6.54994L200.85 1.32994H190.62L183 68.3999H193.23L199.54 12.7499C199.86 12.1055 200.245 11.4957 200.69 10.9299C203.58 7.35994 208.18 4.58994 214.91 4.15994C219.2 3.88994 225.57 5.54994 224.77 14.3299C224.41 18.0099 224.38 18.2099 224.19 20.1799L218.82 68.3999H229.29L234.66 20.1899C235.43 13.3799 235.49 11.6699 234.89 8.88994C232.89 0.39994 221.48 -6.04987e-05 214.64 0.80994Z" fill="#040000"/>
<path d="M288.81 54.6198C288.446 55.4358 287.978 56.202 287.42 56.8998C285.765 59.0893 283.658 60.8969 281.242 62.1997C278.827 63.5025 276.159 64.2699 273.42 64.4498C269.16 64.7698 263.75 63.3498 264.58 54.5498C264.9 50.8598 264.95 50.6798 265.14 48.7098L271 1.27979H260.5L254.67 48.6998C253.94 55.4998 254.46 57.6998 255.21 60.2898C258.27 68.6098 266.87 69.7698 273.72 68.8398C279.257 68.1043 284.334 65.3735 288 61.1598L286.53 72.8198C285.6 79.2298 285.26 82.9598 282.62 87.0898C281.289 89.127 279.513 90.8355 277.426 92.0862C275.338 93.3369 272.994 94.0972 270.57 94.3098C267.154 94.6446 263.706 94.2562 260.45 93.1698L259.28 96.8198C259.894 97.0412 260.522 97.2216 261.16 97.3598C264.826 98.1142 268.585 98.3097 272.31 97.9398C278.7 97.3098 288.04 95.4698 293.58 85.7498C295.83 81.7498 296.36 77.3898 297.29 71.3798L305.64 1.37979H295.52L288.81 54.6198Z" fill="#040000"/>
</g>
<defs>
<clipPath id="clip0_581_170">
<rect width="371.63" height="98.11" fill="white"/>
</clipPath>
</defs>
</svg>
