<svg width="183" height="49" viewBox="0 0 183 49" fill="none" xmlns="http://www.w3.org/2000/svg">
<path d="M79.8211 30.8758C78.7527 30.7974 79.0174 28.8713 79.1007 28.3273C80.2328 20.3977 81.2522 11.6643 81.5217 9.47355C81.9089 6.09192 81.7521 4.80298 81.3698 3.59246C80.7327 1.82813 78.6351 0.416668 75.67 0.161821C68.1324 -0.396883 64.0892 1.55368 61.5015 6.34187C60.0312 8.90014 59.2471 12.3014 58.5021 16.7906C57.718 22.3972 57.2279 26.8326 58.6982 30.2289C60.1979 33.1204 62.8199 34.3407 66.3044 34.1055C69.1322 33.9144 72.3815 31.7776 74.0282 29.3418C73.8518 32.3755 75.2191 33.7232 77.2236 33.5566C78.9536 33.4194 81.0169 32.1402 81.8403 31.2728L81.3992 30.2191C80.9658 30.6152 80.4076 30.8475 79.8211 30.8758ZM74.4301 25.0584C73.6754 29.5477 69.8576 31.7874 67.1719 31.8756C64.4862 31.9638 62.8787 30.9248 62.5405 28.7488C62.0504 26.4944 62.7708 20.8437 63.3344 17.0258C63.9716 12.615 64.9615 8.20421 66.2358 5.65084C66.6892 4.60162 67.4124 3.69116 68.3317 3.01199C69.2511 2.33281 70.3338 1.90914 71.47 1.78402C73.6411 1.47526 77.0619 1.98006 76.7629 6.27815C76.4836 10.2626 75.278 20.0448 74.4399 25.0339L74.4301 25.0584Z" fill="#535151"/>
<path d="M22.9217 30.8758C21.8484 30.7974 22.113 28.8713 22.2012 28.3273C23.3382 20.3977 24.338 11.6643 24.6027 9.47355C25.0095 6.09192 24.8477 4.80298 24.4753 3.59246C23.8283 1.82813 21.7357 0.416668 18.7657 0.161821C11.2428 -0.396883 7.20936 1.55368 4.61188 6.34187C3.17101 8.90014 2.33786 12.3014 1.61252 16.7906C0.867585 22.3972 0.333386 26.8326 1.81346 30.2289C3.31804 33.1204 5.93512 34.3407 9.42457 34.1055C12.2524 33.9144 15.4968 31.7776 17.1582 29.3418C16.9769 32.3755 18.3344 33.7232 20.334 33.5566C22.0787 33.4194 24.142 32.1402 24.9555 31.2728L24.4998 30.2191C24.0711 30.6226 23.51 30.856 22.9217 30.8758ZM17.5307 25.0339C16.8102 29.5232 12.9875 31.7629 10.292 31.856C7.59653 31.9491 5.99884 30.9052 5.66067 28.7292C5.19509 26.4748 5.89102 20.824 6.44482 17.0062C7.08194 12.5954 8.08662 8.18461 9.36086 5.63123C9.8128 4.58148 10.5348 3.67019 11.4533 2.99011C12.3719 2.31002 13.4542 1.88542 14.5901 1.75952C16.7661 1.47036 20.1772 1.96045 19.8831 6.25365C19.6087 10.2626 18.3932 20.0448 17.5307 25.0339Z" fill="#535151"/>
<path d="M182.544 30.219C182.112 30.6169 181.553 30.8495 180.966 30.8757C179.898 30.7973 180.162 28.8712 180.236 28.3272C181.383 20.3976 182.382 11.6641 182.647 9.47343C183.059 6.09181 182.892 4.80287 182.51 3.59234C181.888 1.82802 179.78 0.372448 176.805 0.161709C169.307 -0.401896 165.224 1.57317 162.642 6.36136C161.171 8.91963 160.387 12.3209 159.642 16.8101C158.883 22.4167 158.363 26.8521 159.843 30.2484C161.348 33.1399 163.97 34.3602 167.454 34.125C170.292 33.9339 173.527 31.7971 175.193 29.3613C174.997 32.395 176.364 33.7427 178.369 33.5761C180.108 33.4389 182.172 32.1597 183 31.2923L182.544 30.219ZM175.58 25.0338C174.85 29.523 171.017 31.7628 168.327 31.8559C165.636 31.949 164.033 30.9051 163.695 28.7291C163.205 26.4747 163.926 20.8239 164.475 17.0061C165.121 12.5953 166.131 8.18449 167.391 5.63112C167.844 4.58257 168.566 3.67255 169.484 2.99343C170.403 2.3143 171.485 1.89025 172.62 1.76431C174.796 1.45555 178.212 1.96034 177.913 6.25844C177.624 10.2625 176.418 20.0447 175.58 25.0338Z" fill="#535151"/>
<path d="M43.4418 5.935C42.7403 6.96594 42.1067 8.04152 41.5451 9.1549L42.5253 0.651821H37.4823L33.7527 33.5222H38.781L40.9325 14.5802C41.4134 12.7731 42.208 11.0645 43.2801 9.53227C46.8822 4.68527 52.4251 4.72448 54.062 4.72448L53.9101 0C52.1605 0 47.0832 1.11251 43.4418 5.935Z" fill="#535151"/>
<path d="M106.061 0.397004C103.88 0.666554 101.067 1.37719 99.0183 3.21013L99.3026 0.651851H94.2889L90.5544 33.5222H95.5681L98.6605 6.24869C98.8174 5.93288 99.0063 5.63399 99.2242 5.35672C100.641 3.6071 102.895 2.24955 106.193 2.03881C108.296 1.90648 111.418 2.72003 111.026 7.02303C110.849 8.82657 110.834 8.92458 110.741 9.89006L108.11 33.5222H113.241L115.873 9.89496C116.25 6.55745 116.279 5.71939 115.985 4.35694C115.005 0.196067 109.413 3.02494e-05 106.061 0.397004Z" fill="#535151"/>
<path d="M142.411 26.7686C142.232 27.1686 142.003 27.5441 141.73 27.886C140.919 28.9591 139.886 29.845 138.702 30.4835C137.518 31.122 136.211 31.4981 134.868 31.5862C132.781 31.7431 130.129 31.0471 130.536 26.7343C130.693 24.9259 130.717 24.8377 130.81 23.8722L133.682 0.627197H128.536L125.679 23.8673C125.321 27.1999 125.576 28.2781 125.944 29.5475C127.444 33.625 131.658 34.1935 135.015 33.7377C137.729 33.3773 140.217 32.0389 142.014 29.9738L141.293 35.6883C140.838 38.8298 140.671 40.6578 139.377 42.6819C138.725 43.6803 137.855 44.5176 136.832 45.1306C135.809 45.7435 134.66 46.1162 133.472 46.2203C131.798 46.3844 130.108 46.1941 128.512 45.6616L127.939 47.4505C128.239 47.559 128.547 47.6474 128.86 47.7151C130.657 48.0848 132.499 48.1807 134.324 47.9994C137.456 47.6906 142.034 46.7888 144.749 42.0252C145.851 40.0648 146.111 37.928 146.567 34.9826L150.659 0.676206H145.699L142.411 26.7686Z" fill="#535151"/>
</svg>
