<?xml version="1.0" encoding="UTF-8" standalone="no"?>
<!DOCTYPE svg PUBLIC "-//W3C//DTD SVG 1.1//EN" "http://www.w3.org/Graphics/SVG/1.1/DTD/svg11.dtd">
<svg width="100%" height="100%" viewBox="0 0 209 76" version="1.1" xmlns="http://www.w3.org/2000/svg" xmlns:xlink="http://www.w3.org/1999/xlink" xml:space="preserve" xmlns:serif="http://www.serif.com/" style="fill-rule:evenodd;clip-rule:evenodd;stroke-linejoin:round;stroke-miterlimit:2;">
    <g transform="matrix(1.00286,0,0,1.00286,-23.6775,-90.4105)">
        <g>
            <g transform="matrix(1,0,0,1,-256,-256)">
                <path d="M306.17,347.44L319.8,347.44C319.93,367.63 319.88,387.83 319.89,408.02C319.96,412.15 318.89,416.74 315.38,419.32C311.52,422.32 306.38,421.32 301.84,421.49C300.04,417.62 298.3,413.72 296.69,409.76C299.09,409.76 301.49,409.82 303.88,409.68C303.91,409.681 303.941,409.682 303.971,409.682C305.123,409.682 306.071,408.734 306.071,407.582C306.071,407.413 306.05,407.244 306.01,407.08C306.11,387.19 306,367.31 306.17,347.44Z" style="fill-rule:nonzero;"/>
            </g>
            <g transform="matrix(1,0,0,1,-256,-256)">
                <path d="M362.25,346.54C366.93,346.47 371.61,346.54 376.25,346.54C373.81,352.77 370.35,358.64 368.45,365.04C372.37,366.7 377.2,365.31 381.45,365.81C377.96,373.97 374.06,381.96 370.77,390.22C373.77,390.83 376.93,390.61 380.02,390.61C378.32,394.5 376.58,398.36 374.85,402.23C369.55,402.14 364.24,402.45 358.95,402.09C356.03,402.09 353.36,399.09 354.43,396.17C356.36,390.25 359.37,384.76 361.66,378.98C358.36,378.76 354.41,379.7 351.72,377.26C349.62,375.17 350.84,372.11 351.83,369.8C355.37,362.067 358.843,354.313 362.25,346.54Z" style="fill-rule:nonzero;"/>
            </g>
            <g transform="matrix(1,0,0,1,-256,-256)">
                <path d="M435,346.59L448.84,346.59L448.84,351.79C455.48,351.53 463.21,351.55 468.01,356.93C473.16,362.62 471.49,370.83 471.79,377.81C476.79,377.9 482.38,379.08 485.47,383.42C489.1,388.54 487.67,395.15 487.96,401C487.77,406.57 489.15,413.3 484.55,417.56C479.71,422.79 471.95,421.19 465.6,421.56C463.67,417.65 462.02,413.62 460.32,409.61C464.18,409.5 468.04,409.76 471.89,409.48C473.127,409.405 474.084,408.327 474.01,407.09C474.195,403.399 474.195,399.701 474.01,396.01C474.08,393.4 471.37,391.74 469.01,391.94C462.27,391.84 455.54,391.94 448.8,391.94L448.8,421.51L434.95,421.51L434.95,391.92L421.11,391.92L421.11,378.02C425.71,378.02 430.32,378.02 434.92,377.95C435.007,373.95 435.007,369.923 434.92,365.87C431.86,365.82 428.8,365.78 425.73,365.81L425.73,351.88L434.91,351.88L435,346.59ZM448.77,365.77C448.77,369.837 448.8,373.903 448.86,377.97L458.2,377.97C458.2,374.31 458.44,370.64 458.06,366.97C455.77,364.55 451.77,366.2 448.77,365.77Z" style="fill-rule:nonzero;"/>
            </g>
            <g transform="matrix(1,0,0,1,-256,-256)">
                <path d="M385.58,351.81L417.3,351.81L417.3,365.74L408.58,365.74L408.58,407.51C413.03,407.56 417.49,407.51 421.94,407.56L421.94,421.46L375.5,421.46C377.59,416.82 379.69,412.18 381.84,407.56C385.99,407.56 390.15,407.56 394.3,407.51L394.3,365.77L385.61,365.77C385.57,361.103 385.56,356.45 385.58,351.81Z" style="fill-rule:nonzero;"/>
            </g>
            <g transform="matrix(1,0,0,1,-256,-256)">
                <path d="M476.93,353.09C480.43,350.19 486.24,352.09 487.55,356.36C489.22,360.28 486.09,365.13 481.93,365.51C479.34,365.74 476.74,365.61 474.15,365.6C474.32,361.41 473.05,356 476.93,353.09Z" style="fill-rule:nonzero;"/>
            </g>
            <g transform="matrix(1,0,0,1,-256,-256)">
                <path d="M283,365.72C287.57,365.72 292.13,365.79 296.69,365.61C296.41,373.42 295.54,381.21 295.05,389.01C294.47,398.18 292.39,407.62 286.79,415.11C284.29,409.83 281.95,404.48 279.61,399.11C280.332,397.162 280.777,395.122 280.93,393.05C281.56,384 282.27,374.84 283,365.72Z" style="fill-rule:nonzero;"/>
            </g>
            <g transform="matrix(1,0,0,1,-256,-256)">
                <path d="M329.1,365.72L342.93,365.72C343.63,374.81 344.35,383.9 345.01,392.99C345.149,395.093 345.593,397.165 346.33,399.14C343.99,404.49 341.63,409.83 339.16,415.14C333.98,408.23 331.79,399.59 331.06,391.14C330.33,382.69 329.77,374.18 329.1,365.72Z" style="fill-rule:nonzero;"/>
            </g>
            <g transform="matrix(1,0,0,1,-256,-256)">
                <path d="M346.26,420.41C348.373,415.743 350.507,411.093 352.66,406.46C359.79,408.29 367.19,407.25 374.46,407.53C372.38,412.19 370.25,416.83 368.11,421.46C360.84,421.07 353.34,422.5 346.26,420.41Z" style="fill-rule:nonzero;"/>
            </g>
        </g>
    </g>
</svg>
